#format: frame checksums
#version: 2
#hash: MD5
#tb 0: 1/25
#media_type 0: video
#codec_id 0: mpeg4
#dimensions 0: 352x288
#sar 0: 0/1
#tb 1: 1/44100
#media_type 1: audio
#codec_id 1: ac3
#sample_rate 1: 44100
#channel_layout 1: 4
#channel_layout_name 1: mono
#stream#, dts,        pts, duration,     size, hash
1,       -256,       -256,     1536,      416, e3bd415f62aa927e9273151fdf21ebce
0,          0,          0,        1,     8906, dc889f5692ac7d91295c9fbae76a9818, S=1,        8, 438432f07a4fcc01dd57de0bf46d9acb
1,       1280,       1280,     1536,      418, 6e79527e2af3448d7a0e4a8e29cd9722
0,          1,          1,        1,     1025, 3c8f2dba6d80ebd4f656ecb772d46c9d, S=1,        8, f6ebfc548ad9ba3d00b655047277212d
1,       2816,       2816,     1536,      418, cf49595ac385e497672e5a814f7bcd79
0,          2,          2,        1,     1226, 03470d542c38b78c48df45f19f2958e7, S=1,        8, f6ebfc548ad9ba3d00b655047277212d
1,       4352,       4352,     1536,      418, 846982243d330ab782f0120988d52ade
0,          3,          3,        1,     1353, 51f123ef389e7ccb20d382ce779d81ed, S=1,        8, f6ebfc548ad9ba3d00b655047277212d
1,       5888,       5888,     1536,      418, 77b2d15948434a4831e30c47b8214591
0,          4,          4,        1,     1421, 19897f392cc3517485bc6acfed2c2e2f, S=1,        8, f6ebfc548ad9ba3d00b655047277212d
1,       7424,       7424,     1536,      418, 4fce87d5cce10f6d0268fb398c385af5
0,          5,          5,        1,     1446, 6d5a5dc31d09c144fba37c4e569f6e35, S=1,        8, f6ebfc548ad9ba3d00b655047277212d
1,       8960,       8960,     1536,      418, 963f2dac9af4672809521f2174b78f10
1,      10496,      10496,     1536,      418, eb7a20193c157b02f7b5d5abf802af24
0,          6,          6,        1,     1483, 299f60d66033bab84ee737c6056e8588, S=1,        8, f6ebfc548ad9ba3d00b655047277212d
1,      12032,      12032,     1536,      418, 219b234a1e01d3538bfe09fda58b3289
0,          7,          7,        1,     1494, 54759f501f33744e81a456b5e4d695f7, S=1,        8, f6ebfc548ad9ba3d00b655047277212d
1,      13568,      13568,     1536,      418, ef7bd3e9c13f03aa6676629101a9a8a0
0,          8,          8,        1,     1552, 446661f8d2ee9b82c868cffb26160054, S=1,        8, f6ebfc548ad9ba3d00b655047277212d
1,      15104,      15104,     1536,      418, c5dda974df7e418d9036dff134aad2ae
0,          9,          9,        1,     1521, 0db5cd946c19b1552eacf56901558e5c, S=1,        8, f6ebfc548ad9ba3d00b655047277212d
1,      16640,      16640,     1536,      418, 48e7a9f574654dd95a325cfec5072254
0,         10,         10,        1,     1545, 725ac20d7c171e448dce01d660021118, S=1,        8, f6ebfc548ad9ba3d00b655047277212d
1,      18176,      18176,     1536,      418, 737d867e328377a3e6623f77f646ea61
0,         11,         11,        1,     1556, 429e63d26b4b3b95b91547489e49293d, S=1,        8, f6ebfc548ad9ba3d00b655047277212d
1,      19712,      19712,     1536,      418, 5e2a004ad90ba069cecd9fdc1652388c
0,         12,         12,        1,     8689, 710c00d071339e873215f0c8b58cab0b, S=1,        8, 438432f07a4fcc01dd57de0bf46d9acb
1,      21248,      21248,     1536,      418, c694e51e609bdd00749a04294cbd60fb
1,      22784,      22784,     1536,      418, 6b787ffae0063d9910deebc8b3e98fd4
0,         13,         13,        1,     1144, 74ee1db0568ccf0c866189e59c8530cc, S=1,        8, f6ebfc548ad9ba3d00b655047277212d
1,      24320,      24320,     1536,      418, eb6d62198a5472a1c179d42cde60b869
0,         14,         14,        1,     1404, 9ddf9ceb0f25e54813f340c52b78a21f, S=1,        8, f6ebfc548ad9ba3d00b655047277212d
1,      25856,      25856,     1536,      418, 70a6c8e61e8d75f7a310bc7294ad38f6
0,         15,         15,        1,     1550, 52ca630df0df5d29a3d4d0133e746d39, S=1,        8, f6ebfc548ad9ba3d00b655047277212d
1,      27392,      27392,     1536,      418, 6847924a11575b3628ccdfd81a2fb1dc
0,         16,         16,        1,     1549, d999030e465c63639d2c501180ef9f63, S=1,        8, f6ebfc548ad9ba3d00b655047277212d
1,      28928,      28928,     1536,      418, 6f76bbe03d8b4e0080226247e0e54f96
0,         17,         17,        1,     1582, 2ea6009ba8964412d0be2286296eb255, S=1,        8, f6ebfc548ad9ba3d00b655047277212d
1,      30464,      30464,     1536,      418, c946a8d690aa31fde929678b594cc432
0,         18,         18,        1,     1519, ba2c386a35843ce0bb25b4f5c17e2ee6, S=1,        8, f6ebfc548ad9ba3d00b655047277212d
1,      32000,      32000,     1536,      418, 3add3833b86a38c229faf8e602f83dcb
0,         19,         19,        1,     1541, 34e3b4b5eb4ac0a0ab1fee2df6c38007, S=1,        8, f6ebfc548ad9ba3d00b655047277212d
1,      33536,      33536,     1536,      418, cb51e6a41f5c4a5f01dd94f58210112b
1,      35072,      35072,     1536,      418, 66c3570cb8c11386b0601fe4a6eb7ee0
0,         20,         20,        1,     1578, f7c6d15a0de6088a1547d4be0898387f, S=1,        8, f6ebfc548ad9ba3d00b655047277212d
1,      36608,      36608,     1536,      418, 8b986c15b9ab86432c43cedd1a182e8d
0,         21,         21,        1,     1622, e568e8b1bf951006f7d025890b950e5d, S=1,        8, f6ebfc548ad9ba3d00b655047277212d
1,      38144,      38144,     1536,      418, 0dd29cc7f63f2afac3eec5e5944165e7
0,         22,         22,        1,     1611, a208ef59b6f176a78d6c9113df17cf3d, S=1,        8, f6ebfc548ad9ba3d00b655047277212d
1,      39680,      39680,     1536,      418, c4c14deb03d5048f8c6101260c617fae
0,         23,         23,        1,     1706, f298b1930c927839470258f50d456dc8, S=1,        8, f6ebfc548ad9ba3d00b655047277212d
1,      41216,      41216,     1536,      418, 4a3480d888fa0dd49a7bbf2669b5d3ed
0,         24,         24,        1,     9767, 9a4cf29909201c67bf40238efdf65d19, S=1,        8, 438432f07a4fcc01dd57de0bf46d9acb
1,      42752,      42752,     1536,      418, aaeabe149b9185a6f09c271eb2c656dd
0,         25,         25,        1,     1323, 248d92526f1e6a0d5e7592b40ac213c0, S=1,        8, f6ebfc548ad9ba3d00b655047277212d
1,      44288,      44288,     1536,      418, 0995488ad1bb84ec4a3e738b568484a4
1,      45824,      45824,     1536,      418, baa39bdfd9f47f7d312312985f59fb72
0,         26,         26,        1,     1621, 1ee6a5eb09be8ab281d05125c2868c56, S=1,        8, f6ebfc548ad9ba3d00b655047277212d
1,      47360,      47360,     1536,      418, c25bac736a8c356d0a0f9c9299f88880
0,         27,         27,        1,     1698, db8b8ca03eca285d02dbce6eaaacdfd1, S=1,        8, f6ebfc548ad9ba3d00b655047277212d
1,      48896,      48896,     1536,      418, 85378fd6c8b49a1f4c5490ab1e4013ca
0,         28,         28,        1,     1793, c50e4bdacb3ecef9c94be7b292929018, S=1,        8, f6ebfc548ad9ba3d00b655047277212d
1,      50432,      50432,     1536,      418, 528e28031145f07336cd2a1b9b324ca6
0,         29,         29,        1,     1805, 1db64693c5ca5595b2f47097ffdfc612, S=1,        8, f6ebfc548ad9ba3d00b655047277212d
1,      51968,      51968,     1536,      418, cc9b907fc92fffc61f7e41cdb863d586
0,         30,         30,        1,     1880, 9f96e1bc1f3b595d6cd626dced55416f, S=1,        8, f6ebfc548ad9ba3d00b655047277212d
1,      53504,      53504,     1536,      418, fe2f2ca279b14d7053349111578b48c0
0,         31,         31,        1,     1902, 209393253d103d83d8dddde7fe044953, S=1,        8, f6ebfc548ad9ba3d00b655047277212d
1,      55040,      55040,     1536,      418, 5f2c6037aa4b89572a4ed712082ae2ab
0,         32,         32,        1,     1896, 9a845e06daafc1dd83d77fe507569968, S=1,        8, f6ebfc548ad9ba3d00b655047277212d
1,      56576,      56576,     1536,      418, 17a096694df972c2ef3a9abbe0a9cd6a
1,      58112,      58112,     1536,      418, c96a64bbfd1aae269e44bfdaea7c8a9c
0,         33,         33,        1,     1954, 77c37124c545198b688518508299f5f8, S=1,        8, f6ebfc548ad9ba3d00b655047277212d
1,      59648,      59648,     1536,      418, 5f9297244e107134c49fc4982f5a7c1f
0,         34,         34,        1,     1989, 0b142544ef59e421e33a40f9e685dffa, S=1,        8, f6ebfc548ad9ba3d00b655047277212d
1,      61184,      61184,     1536,      418, da740d2d75b51d6e28bcb068f6a90d41
0,         35,         35,        1,     2042, f69d73e0af0b4d9ef65205d8a0ee0937, S=1,        8, f6ebfc548ad9ba3d00b655047277212d
1,      62720,      62720,     1536,      418, 76e6bbbbfa0692659d0d84a30dcfff34
0,         36,         36,        1,    10868, 2f4b959d1dc05a1d7e00cbe204b5fc2d, S=1,        8, 438432f07a4fcc01dd57de0bf46d9acb
1,      64256,      64256,     1536,      418, 0bd304182f1693b18c46b0faa682b159
0,         37,         37,        1,     1511, 6ab5a58771e346bd8756fdd68139ad8e, S=1,        8, f6ebfc548ad9ba3d00b655047277212d
1,      65792,      65792,     1536,      418, ecf7bd4ba9161338ce2cefc1fdd06098
0,         38,         38,        1,     1780, 62e0bc487aa55ad381d0a1e7f8b7a477, S=1,        8, f6ebfc548ad9ba3d00b655047277212d
1,      67328,      67328,     1536,      418, 4953c0e441ca0ca2e1970b8b31d6c70e
0,         39,         39,        1,     1953, ad1854098648e499e347cf828202d1d5, S=1,        8, f6ebfc548ad9ba3d00b655047277212d
1,      68864,      68864,     1536,      418, 4eb7f24aa46b8f0e6b47d0ca6ec0d56d
1,      70400,      70400,     1536,      418, df4d73a6acccd3be6663188f4baab996
0,         40,         40,        1,     2036, da8405d19586da34274a578f4972fd7f, S=1,        8, f6ebfc548ad9ba3d00b655047277212d
1,      71936,      71936,     1536,      418, 5e60f266106b86f19749b64d86b11f43
0,         41,         41,        1,     1980, e046fca4a3652fad1b0b22e49a290dd8, S=1,        8, f6ebfc548ad9ba3d00b655047277212d
1,      73472,      73472,     1536,      418, cedea148c5f7ddba6f0fbcbe17e6bfbb
0,         42,         42,        1,     2014, 01806ec06d4cdb2b840a6f7993b648e3, S=1,        8, f6ebfc548ad9ba3d00b655047277212d
1,      75008,      75008,     1536,      416, 97655498b413a59b3f0f6bdc25f69084
0,         43,         43,        1,     2040, 19c5cc70489711d467ef7ef4414fdf6a, S=1,        8, f6ebfc548ad9ba3d00b655047277212d
1,      76544,      76544,     1536,      418, 0bea3f23db7aafefe50710310af25a9b
0,         44,         44,        1,     2071, 2bc9f2d22ac276366337341e89efd6cb, S=1,        8, f6ebfc548ad9ba3d00b655047277212d
1,      78080,      78080,     1536,      418, e763b383810d9a4645901c0d93f98a32
0,         45,         45,        1,     2117, 7173333f3ff643752b8afea6d5486117, S=1,        8, f6ebfc548ad9ba3d00b655047277212d
1,      79616,      79616,     1536,      418, f090bb15688066a9c5129348f86245e7
0,         46,         46,        1,     2169, fda9c958dc9fea54efa935624528a902, S=1,        8, f6ebfc548ad9ba3d00b655047277212d
1,      81152,      81152,     1536,      418, beb8658ede31b44326de936b28a2d740
1,      82688,      82688,     1536,      418, 53987c0214550f387ce03093b83f4225
0,         47,         47,        1,     2096, 9516005a46f05f1a582524be91c4d672, S=1,        8, f6ebfc548ad9ba3d00b655047277212d
1,      84224,      84224,     1536,      418, d3c37c202144070892528cc0a0ff3112
0,         48,         48,        1,    11249, 36825ee3b6f996a93b1031bd1106586a, S=1,        8, 438432f07a4fcc01dd57de0bf46d9acb
1,      85760,      85760,     1536,      418, cf52ea7fc69e4c5bc8f75b354dfe60af
0,         49,         49,        1,     1506, 74f01869f22e72e244f31e2da2614676, S=1,        8, f6ebfc548ad9ba3d00b655047277212d
1,      87296,      87296,     1536,      418, 78ab22657a1b6c8a0e5b8612ceb8081d
